<svg width="33" height="33" viewBox="0 0 33 33" fill="none" xmlns="http://www.w3.org/2000/svg">
<path d="M8.25 11V9.625C8.25 5.06865 11.9436 1.375 16.5 1.375C21.0563 1.375 24.75 5.06865 24.75 9.625V11H27.5C28.2594 11 28.875 11.6156 28.875 12.375V28.875C28.875 29.6344 28.2594 30.25 27.5 30.25H5.5C4.74062 30.25 4.125 29.6344 4.125 28.875V12.375C4.125 11.6156 4.74062 11 5.5 11H8.25ZM26.125 13.75H6.875V27.5H26.125V13.75ZM15.125 21.632C14.303 21.1566 13.75 20.2679 13.75 19.25C13.75 17.7312 14.9812 16.5 16.5 16.5C18.0188 16.5 19.25 17.7312 19.25 19.25C19.25 20.2679 18.697 21.1566 17.875 21.632V24.75H15.125V21.632ZM11 11H22V9.625C22 6.58743 19.5375 4.125 16.5 4.125C13.4624 4.125 11 6.58743 11 9.625V11Z" fill="#456DBB"/>
</svg>
